<svg width="30" height="30" viewBox="0 0 30 30" fill="none" xmlns="http://www.w3.org/2000/svg">
<g opacity="0.5">
<path d="M22.5861 6L20.343 8.2434C18.6993 7.4466 16.8966 6.9999 15 6.9999C9.8691 6.9999 5.4003 10.2225 3 15C4.1799 17.3487 5.8644 19.3116 7.8771 20.7099L6.0003 22.5858L7.4145 24L9.6537 21.7608L12.2466 19.1688C12.2466 19.1688 12.2466 19.1688 12.2457 19.1688L24.0003 7.4142L22.5861 6ZM15.0003 12C13.3431 12 12.0003 13.3428 12.0003 15C12.0003 15.462 12.1137 15.8955 12.3 16.2861L10.8363 17.7501C10.3128 16.9608 10.0002 16.0194 10.0002 15C10.0002 12.2382 12.2385 9.9999 15.0003 9.9999C16.0197 9.9999 16.9611 10.3116 17.7504 10.836L16.2864 12.2997C15.8946 12.1134 15.4632 12 15.0003 12Z" fill="#A8BCD5"/>
<path d="M23.6905 10.5519L19.9309 14.3115C19.9621 14.5392 20.0002 14.7648 20.0002 15C20.0002 17.7618 17.7619 20.0001 15.0001 20.0001C14.7637 20.0001 14.5393 19.962 14.3116 19.9308L11.707 22.5363C12.7627 22.8342 13.8634 23.0004 15.0001 23.0004C20.131 23.0004 24.5998 19.7787 27.0001 15.0003C26.1418 13.2912 25.0147 11.7861 23.6905 10.5519Z" fill="#A8BCD5"/>
</g>
</svg>
