<svg width="30" height="30" viewBox="0 0 30 30" fill="none" xmlns="http://www.w3.org/2000/svg">
<g opacity="0.4">
<path d="M15 6.99991C9.8691 6.99991 5.4003 10.2225 3 15C5.4003 19.7784 9.8691 23.0001 15 23.0001C20.1309 23.0001 24.5997 19.7784 27 15C24.5997 10.2225 20.1309 6.99991 15 6.99991ZM15 20.0001C12.2382 20.0001 9.9999 17.7618 9.9999 15C9.9999 12.2382 12.2382 9.99991 15 9.99991C17.7618 9.99991 20.0001 12.2382 20.0001 15C20.0001 17.7618 17.7618 20.0001 15 20.0001Z" fill="#A8BCD5"/>
<path d="M15 18C16.6569 18 18 16.6569 18 15C18 13.3431 16.6569 12 15 12C13.3431 12 12 13.3431 12 15C12 16.6569 13.3431 18 15 18Z" fill="#A8BCD5"/>
</g>
</svg>
