<svg width="50" height="50" viewBox="0 0 50 50" fill="none" xmlns="http://www.w3.org/2000/svg">
<path fill-rule="evenodd" clip-rule="evenodd" d="M2.08333 12.5H35.4167C36.5673 12.5 37.5 13.4327 37.5 14.5833V16.6667C37.5 17.8173 36.5673 18.75 35.4167 18.75H2.08333C0.93274 18.75 0 17.8173 0 16.6667V14.5833C0 13.4327 0.93274 12.5 2.08333 12.5ZM4.16667 22.9167H14.5833C15.7339 22.9167 16.6667 23.8494 16.6667 25V39.5833C16.6667 40.7339 15.7339 41.6667 14.5833 41.6667H4.16667C3.01607 41.6667 2.08333 40.7339 2.08333 39.5833V25C2.08333 23.8494 3.01607 22.9167 4.16667 22.9167ZM22.9167 22.9167H33.3333C34.4839 22.9167 35.4167 23.8494 35.4167 25V39.5833C35.4167 40.7339 34.4839 41.6667 33.3333 41.6667H22.9167C21.7661 41.6667 20.8333 40.7339 20.8333 39.5833V25C20.8333 23.8494 21.7661 22.9167 22.9167 22.9167Z" fill="url(#paint0_linear)"/>
<path opacity="0.6" d="M23.8439 4.51638C24.8013 3.87814 26.0948 4.13684 26.733 5.09419C27.3712 6.05154 27.1125 7.34502 26.1552 7.98325L18.7496 12.9203L11.3439 7.98325C10.3866 7.34502 10.1279 6.05154 10.7661 5.09419C11.4044 4.13684 12.6978 3.87814 13.6552 4.51638L18.7496 7.91263L23.8439 4.51638Z" fill="url(#paint1_linear)"/>
<defs>
<linearGradient id="paint0_linear" x1="-0.208333" y1="12.7593" x2="29.4493" y2="48.0865" gradientUnits="userSpaceOnUse">
<stop stop-color="#5C7FD6"/>
<stop offset="1" stop-color="#56A0E3"/>
</linearGradient>
<linearGradient id="paint1_linear" x1="10.3234" y1="4.24407" x2="18.0785" y2="17.9235" gradientUnits="userSpaceOnUse">
<stop stop-color="#5C7FD6"/>
<stop offset="1" stop-color="#56A0E3"/>
</linearGradient>
</defs>
</svg>
