<svg width="50" height="50" viewBox="0 0 50 50" fill="none" xmlns="http://www.w3.org/2000/svg">
<path fill-rule="evenodd" clip-rule="evenodd" d="M29.1974 32.5658V25C29.1974 21.5482 26.3991 18.75 22.9474 18.75H8.70117V11.5132C8.70117 8.6064 11.0576 6.25 13.9643 6.25H38.5257C41.4325 6.25 43.7889 8.6064 43.7889 11.5132V27.3026L43.8236 37.0558C43.8257 37.6311 43.361 38.0991 42.7857 38.1012C42.5081 38.1022 42.2417 37.9924 42.0454 37.7961L36.8151 32.5658H29.1974Z" fill="url(#paint0_linear)"/>
<path opacity="0.6" fill-rule="evenodd" clip-rule="evenodd" d="M0 37.4993V27.0827C0 24.7815 1.86548 22.916 4.16667 22.916H20.8333C23.1345 22.916 25 24.7815 25 27.0827V37.4993C25 39.8005 23.1345 41.666 20.8333 41.666H4.40777L1.81641 44.1463C1.40081 44.5441 0.741417 44.5296 0.343627 44.114C0.158062 43.9202 0.0544836 43.6621 0.0544836 43.3938V38.1749C0.0186372 37.955 0 37.7294 0 37.4993ZM9.40613 29.166C8.83084 29.166 8.36447 29.6324 8.36447 30.2077C8.36447 30.783 8.83084 31.2493 9.40613 31.2493H19.8228C20.3981 31.2493 20.8645 30.783 20.8645 30.2077C20.8645 29.6324 20.3981 29.166 19.8228 29.166H9.40613ZM15.6561 33.3327C15.0808 33.3327 14.6145 33.7991 14.6145 34.3743C14.6145 34.9496 15.0808 35.416 15.6561 35.416H19.8228C20.3981 35.416 20.8645 34.9496 20.8645 34.3743C20.8645 33.7991 20.3981 33.3327 19.8228 33.3327H15.6561Z" fill="url(#paint1_linear)"/>
<defs>
<linearGradient id="paint0_linear" x1="8.50605" y1="6.53312" x2="41.3827" y2="40.1205" gradientUnits="userSpaceOnUse">
<stop stop-color="#5C7FD6"/>
<stop offset="1" stop-color="#56A0E3"/>
</linearGradient>
<linearGradient id="paint1_linear" x1="-0.138889" y1="23.1073" x2="22.0185" y2="46.9555" gradientUnits="userSpaceOnUse">
<stop stop-color="#5C7FD6"/>
<stop offset="1" stop-color="#56A0E3"/>
</linearGradient>
</defs>
</svg>
