<svg width="50" height="50" viewBox="0 0 50 50" fill="none" xmlns="http://www.w3.org/2000/svg">
<path opacity="0.3" fill-rule="evenodd" clip-rule="evenodd" d="M6.24935 4.1665H31.2494C32.3999 4.1665 33.3327 5.09924 33.3327 6.24984V24.9998C33.3327 26.1504 32.3999 27.0832 31.2494 27.0832H6.24935C5.09876 27.0832 4.16602 26.1504 4.16602 24.9998V6.24984C4.16602 5.09924 5.09876 4.1665 6.24935 4.1665ZM9.37435 10.4165C8.79905 10.4165 8.33268 10.8829 8.33268 11.4582C8.33268 12.0335 8.79905 12.4998 9.37435 12.4998H21.8743C22.4496 12.4998 22.916 12.0335 22.916 11.4582C22.916 10.8829 22.4496 10.4165 21.8743 10.4165H9.37435ZM9.37435 14.5832C8.79905 14.5832 8.33268 15.0495 8.33268 15.6248C8.33268 16.2001 8.79905 16.6665 9.37435 16.6665H15.6243C16.1996 16.6665 16.666 16.2001 16.666 15.6248C16.666 15.0495 16.1996 14.5832 15.6243 14.5832H9.37435Z" fill="#1A4FD9"/>
<path fill-rule="evenodd" clip-rule="evenodd" d="M4.29688 10.4808V15.6249L18.75 26.0415L33.3333 15.2341V10.4808C34.3776 11.3564 37.5 12.9757 37.5 14.5371V35.4165C37.5 37.7177 35.6345 39.5832 33.3333 39.5832H4.16667C1.86548 39.5832 0 37.7177 0 35.4165V14.5371C0 13.0977 3.85275 10.1601 4.29688 10.4808Z" fill="url(#paint0_linear)"/>
<defs>
<linearGradient id="paint0_linear" x1="-0.208333" y1="10.7154" x2="29.4015" y2="46.0342" gradientUnits="userSpaceOnUse">
<stop stop-color="#5C7FD6"/>
<stop offset="1" stop-color="#56A0E3"/>
</linearGradient>
</defs>
</svg>
