<svg width="52" height="50" viewBox="0 0 52 50" fill="none" xmlns="http://www.w3.org/2000/svg">
<path fill-rule="evenodd" clip-rule="evenodd" d="M8.33333 6.25V7.29167C8.33333 9.01756 9.73244 10.4167 11.4583 10.4167H21.875C23.6009 10.4167 25 9.01756 25 7.29167V6.25H29.1667C31.4678 6.25 33.3333 8.11548 33.3333 10.4167V43.75C33.3333 46.0512 31.4678 47.9167 29.1667 47.9167H4.16667C1.86548 47.9167 0 46.0512 0 43.75V10.4167C0 8.11548 1.86548 6.25 4.16667 6.25H8.33333Z" fill="url(#paint0_linear)"/>
<path opacity="0.6" fill-rule="evenodd" clip-rule="evenodd" d="M14.5827 4.16646C14.5827 3.01587 15.5154 2.08313 16.666 2.08313C17.8166 2.08313 18.7493 3.01587 18.7493 4.16646H21.8743C22.4496 4.16646 22.916 4.63283 22.916 5.20813V7.29146C22.916 7.86676 22.4496 8.33313 21.8743 8.33313H11.4577C10.8824 8.33313 10.416 7.86676 10.416 7.29146V5.20813C10.416 4.63283 10.8824 4.16646 11.4577 4.16646H14.5827Z" fill="url(#paint1_linear)"/>
<path d="M14.5833 20.8331H8.33333C7.18274 20.8331 6.25 21.7659 6.25 22.9165C6.25 24.0671 7.18274 24.9998 8.33333 24.9998H14.5833C15.7339 24.9998 16.6667 24.0671 16.6667 22.9165C16.6667 21.7659 15.7339 20.8331 14.5833 20.8331Z" fill="#9BC0EC"/>
<path d="M22.9167 29.1669H8.33333C7.18274 29.1669 6.25 30.0996 6.25 31.2502C6.25 32.4008 7.18274 33.3335 8.33333 33.3335H22.9167C24.0673 33.3335 25 32.4008 25 31.2502C25 30.0996 24.0673 29.1669 22.9167 29.1669Z" fill="#9BC0EC"/>
<defs>
<linearGradient id="paint0_linear" x1="-0.185185" y1="6.62037" x2="40.9727" y2="37.1254" gradientUnits="userSpaceOnUse">
<stop stop-color="#5C7FD6"/>
<stop offset="1" stop-color="#56A0E3"/>
</linearGradient>
<linearGradient id="paint1_linear" x1="10.3466" y1="2.13869" x2="15.7404" y2="12.1331" gradientUnits="userSpaceOnUse">
<stop stop-color="#5C7FD6"/>
<stop offset="1" stop-color="#56A0E3"/>
</linearGradient>
</defs>
</svg>
