<svg width="149" height="43" viewBox="0 0 149 43" fill="none" xmlns="http://www.w3.org/2000/svg">
<path d="M19.7469 2.58147V10.3259L11.646 14.3825H11.5736L4.0513 10.6947C2.42388 9.92023 2.38771 7.56002 4.01514 6.7487L16.0581 0.295016C17.7579 -0.590061 19.7469 0.62692 19.7469 2.58147Z" fill="url(#paint0_linear)"/>
<path d="M0 40.4185C0 42.2993 1.91675 43.5531 3.58034 42.7418L18.3718 36.2881C19.2036 35.9193 19.6376 35.108 19.6738 34.3336V23.8233C19.6738 24.6346 19.2398 25.409 18.3718 25.7778L0 34.0017V40.4185Z" fill="url(#paint1_linear)"/>
<path d="M16.1296 23.8602L0 30.4614V11.1003C0 12.2804 2.2784 13.313 3.29102 13.7924L15.6956 19.656L16.1658 19.8773C17.8655 20.6886 17.8294 23.1226 16.1296 23.8602Z" fill="url(#paint2_linear)"/>
<path d="M49.5814 12.1329L47.4838 14.9357C46.5797 13.7187 45.4585 13.1287 44.1204 13.1287C43.144 13.1287 42.4207 13.3868 41.9505 13.8662C41.4804 14.3456 41.2634 14.9357 41.2634 15.5995C41.2634 16.1527 41.4804 16.6321 41.9144 17.0378C42.2399 17.3697 43.0717 17.7384 44.4098 18.2547C46.4712 18.9554 47.8454 19.693 48.6049 20.3568C49.7984 21.4263 50.377 22.9014 50.377 24.7822C50.377 26.8474 49.726 28.5069 48.3879 29.7976C47.0498 31.0884 45.3139 31.7153 43.2163 31.7153C40.2508 31.7153 37.8639 30.3877 36.0918 27.7324L38.7318 25.1878C39.202 26.1467 39.8168 26.8474 40.6124 27.2899C41.4081 27.7693 42.2399 27.9906 43.0717 27.9906C44.0119 27.9906 44.7714 27.7324 45.3501 27.1793C45.9649 26.6261 46.2542 25.9254 46.2542 25.0772C46.2542 24.3396 46.001 23.7127 45.4585 23.1964C44.9522 22.717 43.9035 22.2007 42.276 21.6475C40.7571 21.1312 39.5998 20.5043 38.8403 19.8036C37.7554 18.8448 37.2129 17.5172 37.2129 15.8945C37.2129 14.1981 37.7916 12.723 38.9127 11.506C40.0338 10.289 41.6974 9.69899 43.8311 9.69899C46.0372 9.66211 47.9901 10.5103 49.5814 12.1329Z" fill="#212D32"/>
<path d="M64.1914 19.3242V17.554H67.9526V31.2358H64.1914V29.4657C63.1788 30.9408 61.8045 31.6784 60.0686 31.6784C58.0434 31.6784 56.416 30.9777 55.114 29.5763C53.8482 28.1749 53.1973 26.4417 53.1973 24.4134C53.1973 22.3482 53.8121 20.6149 55.0417 19.2504C56.2713 17.849 57.8987 17.1483 59.8516 17.1483C61.8045 17.1115 63.2511 17.849 64.1914 19.3242ZM63.5043 21.6106C62.8172 20.873 61.913 20.5043 60.8281 20.5043C59.7431 20.5043 58.8752 20.873 58.1519 21.6106C57.4647 22.3482 57.1031 23.2701 57.1031 24.3765C57.1031 25.4828 57.4647 26.4048 58.1519 27.1423C58.839 27.8799 59.7431 28.2487 60.8281 28.2487C61.913 28.2487 62.781 27.8799 63.5043 27.1423C64.1914 26.4048 64.5531 25.4828 64.5531 24.3765C64.5531 23.2701 64.1914 22.3482 63.5043 21.6106Z" fill="#212D32"/>
<path d="M73.233 13.3868C72.799 12.9442 72.582 12.3911 72.582 11.7641C72.582 11.1372 72.799 10.584 73.233 10.1415C73.667 9.69896 74.2095 9.47769 74.8243 9.47769C75.4391 9.47769 75.9815 9.69896 76.4155 10.1415C76.8495 10.584 77.0665 11.1372 77.0665 11.7641C77.0665 12.3911 76.8495 12.9442 76.4155 13.3868C75.9815 13.8293 75.4391 14.0506 74.8243 14.0506C74.2095 14.0506 73.667 13.8293 73.233 13.3868ZM72.9075 19.066L76.6687 17.554V31.2358H72.9075V19.066Z" fill="#212D32"/>
<path d="M81.6602 9.07206L85.4213 7.56005V31.199H81.6602V9.07206Z" fill="#212D32"/>
<path d="M93.4506 29.4657V38.5746L89.6895 40.0866V17.554H93.4506V19.3242C94.4994 17.849 95.946 17.1115 97.8266 17.1115C99.7795 17.1115 101.371 17.8122 102.6 19.1767C103.83 20.5412 104.445 22.2744 104.445 24.3765C104.445 26.4785 103.83 28.2118 102.564 29.6132C101.298 30.9777 99.7072 31.6784 97.7543 31.6784C95.9098 31.6415 94.4994 30.9408 93.4506 29.4657ZM99.454 21.6106C98.7669 20.8731 97.8628 20.5043 96.7778 20.5043C95.6929 20.5043 94.8249 20.8731 94.1016 21.6106C93.4145 22.3482 93.0528 23.2701 93.0528 24.3765C93.0528 25.4828 93.4145 26.4048 94.1016 27.1424C94.7887 27.8799 95.6929 28.2487 96.7778 28.2487C97.8628 28.2487 98.7307 27.8799 99.454 27.1424C100.141 26.4048 100.503 25.4828 100.503 24.3765C100.503 23.2701 100.141 22.3482 99.454 21.6106Z" fill="#212D32"/>
<path d="M107.916 9.07206L111.677 7.56005V31.199H107.916V9.07206Z" fill="#212D32"/>
<path d="M126.215 19.3242V17.554H129.976V31.2358H126.215V29.4657C125.202 30.9408 123.828 31.6784 122.092 31.6784C120.067 31.6784 118.439 30.9777 117.137 29.5763C115.872 28.1749 115.221 26.4417 115.221 24.4134C115.221 22.3482 115.836 20.6149 117.065 19.2504C118.295 17.849 119.922 17.1483 121.875 17.1483C123.828 17.1115 125.275 17.849 126.215 19.3242ZM125.528 21.6106C124.841 20.873 123.936 20.5043 122.852 20.5043C121.767 20.5043 120.899 20.873 120.175 21.6106C119.488 22.3482 119.127 23.2701 119.127 24.3765C119.127 25.4828 119.488 26.4048 120.175 27.1423C120.862 27.8799 121.767 28.2487 122.852 28.2487C123.936 28.2487 124.804 27.8799 125.528 27.1423C126.215 26.4048 126.577 25.4828 126.577 24.3765C126.577 23.2701 126.215 22.3482 125.528 21.6106Z" fill="#212D32"/>
<path d="M133.919 38.5378L138.838 29.1707L132.473 17.5541H136.885L141.044 25.3354L144.769 17.5541H149L138.187 38.5747H133.919V38.5378Z" fill="#212D32"/>
<defs>
<linearGradient id="paint0_linear" x1="6.32453" y1="10.7761" x2="19.9027" y2="4.80367" gradientUnits="userSpaceOnUse">
<stop stop-color="#3742A6"/>
<stop offset="1" stop-color="#5C80D7"/>
</linearGradient>
<linearGradient id="paint1_linear" x1="19.5742" y1="29.8076" x2="0.427731" y2="39.0989" gradientUnits="userSpaceOnUse">
<stop stop-color="#3742A6"/>
<stop offset="1" stop-color="#5C80D7"/>
</linearGradient>
<linearGradient id="paint2_linear" x1="9.03725" y1="26.4465" x2="-0.0515838" y2="11.124" gradientUnits="userSpaceOnUse">
<stop stop-color="#EC7F00"/>
<stop offset="1" stop-color="#FFC700"/>
</linearGradient>
</defs>
</svg>
