<svg width="84" height="60" viewBox="0 0 84 60" fill="none" xmlns="http://www.w3.org/2000/svg">
<path d="M84 0H0V60H84V0Z" fill="#D3D800"/>
<path d="M20.8992 39.1001C22.2992 39.1001 25.8992 38.8001 28.4992 36.9001V38.4001H33.7992V31.9001L35.9992 29.6001L40.8992 38.4001H47.2992L39.8992 25.9001L47.0992 18.0001H40.4992L33.7992 25.7001V10.8001H28.4992V13.2001C26.8992 11.5001 24.1992 10.1001 20.0992 10.1001C11.1992 10.1001 9.49922 15.5001 9.49922 18.6001C9.49922 22.8001 11.6992 25.1001 15.5992 26.0001L21.0992 27.4001C23.9992 28.1001 26.0992 28.7001 26.0992 30.8001C26.0992 33.7001 23.0992 34.4001 20.2992 34.4001C15.2992 34.4001 14.4992 31.5001 14.4992 29.9001H9.19922C9.19922 33.3001 10.8992 39.1001 20.8992 39.1001ZM24.5992 22.7001L17.8992 21.0001C16.7992 20.7001 14.9992 20.3001 14.9992 18.1001C14.9992 15.6001 17.5992 14.8001 19.7992 14.8001C24.7992 14.8001 25.2992 17.7001 25.3992 19.0001H28.5992V24.1001C27.3992 23.5001 25.9992 23.0001 24.5992 22.7001Z" fill="#111820"/>
<path d="M10.9004 51.0003V41.8003H15.6004C16.3004 41.8003 16.9004 41.9003 17.4004 42.2003C17.8004 42.5003 18.1004 42.8003 18.3004 43.2003C18.5004 43.6003 18.5004 44.0003 18.5004 44.3003C18.5004 44.8003 18.4004 45.3003 18.1004 45.7003C17.8004 46.1003 17.5004 46.4003 17.1004 46.5003C17.4004 46.6003 17.6004 46.8003 17.8004 46.9003C18.0004 47.0003 18.1004 47.3003 18.2004 47.6003C18.3004 47.9003 18.3004 48.3003 18.3004 48.9003C18.3004 49.4003 18.3004 49.8003 18.3004 50.0003C18.3004 50.2003 18.3004 50.4003 18.4004 50.5003C18.5004 50.6003 18.6004 50.7003 18.7004 50.7003V51.0003H16.6004C16.5004 50.5003 16.4004 49.9003 16.4004 49.1003C16.4004 48.6003 16.4004 48.3003 16.3004 48.0003C16.2004 47.8003 16.1004 47.6003 15.9004 47.5003C15.7004 47.4003 15.4004 47.3003 14.9004 47.3003H12.9004V51.0003H10.9004ZM12.8004 45.8003H15.1004C15.6004 45.8003 16.0004 45.7003 16.2004 45.5003C16.4004 45.3003 16.6004 45.0003 16.6004 44.5003C16.6004 44.2003 16.5004 43.9003 16.3004 43.7003C16.1004 43.5003 15.8004 43.3003 15.2004 43.3003H12.8004V45.8003Z" fill="#111820"/>
<path d="M24.0008 49H25.8008C25.6008 49.8 25.2008 50.3 24.6008 50.7C24.0008 51 23.4008 51.2 22.8008 51.2C22.3008 51.2 21.9008 51.1 21.4008 51C21.0008 50.9 20.6008 50.7 20.3008 50.4C20.0008 50.1 19.8008 49.7 19.6008 49.2C19.4008 48.7 19.3008 48.1 19.3008 47.5C19.3008 47.2 19.3008 46.9 19.4008 46.5C19.5008 46.1 19.6008 45.8 19.8008 45.4C20.0008 45 20.4008 44.7 20.8008 44.4C21.2008 44.1 21.8008 44 22.5008 44C22.9008 44 23.3008 44.1 23.6008 44.2C24.0008 44.3 24.3008 44.5 24.6008 44.8C24.9008 45.1 25.2008 45.5 25.4008 46C25.6008 46.5 25.7008 47.1 25.7008 47.9V48.2H21.0008C21.0008 48.5 21.1008 48.7 21.1008 49C21.2008 49.2 21.3008 49.4 21.6008 49.6C21.8008 49.8 22.2008 49.9 22.6008 49.9C22.9008 49.9 23.1008 49.8 23.3008 49.7C23.8008 49.4 24.0008 49.2 24.0008 49ZM21.3008 46.9H24.1008C24.1008 46.4 23.9008 46 23.6008 45.8C23.3008 45.6 23.0008 45.5 22.7008 45.5C21.9008 45.5 21.5008 45.9 21.3008 46.9Z" fill="#111820"/>
<path d="M32.8012 46.2003H31.0012C31.0012 45.9003 30.8012 45.7003 30.7012 45.5003C30.5012 45.3003 30.2012 45.3003 29.8012 45.3003C29.1012 45.3003 28.7012 45.5003 28.7012 46.0003C28.7012 46.2003 28.9012 46.4003 29.4012 46.5003C29.9012 46.6003 30.4012 46.7003 31.0012 46.9003C31.5012 47.0003 32.0012 47.2003 32.4012 47.5003C32.8012 47.8003 33.0012 48.2003 33.0012 48.8003C33.0012 49.4003 32.8012 49.9003 32.5012 50.2003C32.2012 50.6003 31.8012 50.8003 31.3012 50.9003C30.8012 51.0003 30.4012 51.1003 30.0012 51.1003C29.1012 51.1003 28.3012 50.9003 27.7012 50.5003C27.1012 50.1003 26.7012 49.5003 26.7012 48.7003H28.5012C28.5012 49.4003 29.0012 49.7003 30.0012 49.7003C30.4012 49.7003 30.7012 49.6003 30.9012 49.5003C31.1012 49.4003 31.2012 49.2003 31.2012 49.0003C31.2012 48.8003 30.9012 48.6003 30.4012 48.4003C29.9012 48.3003 29.4012 48.1003 28.9012 48.0003C28.4012 47.9003 27.9012 47.7003 27.5012 47.4003C27.1012 47.1003 26.9012 46.7003 26.9012 46.1003C26.9012 45.7003 27.0012 45.4003 27.2012 45.0003C27.4012 44.7003 27.7012 44.4003 28.1012 44.1003C28.5012 43.9003 29.0012 43.8003 29.7012 43.8003C31.6012 44.0003 32.7012 44.7003 32.8012 46.2003Z" fill="#111820"/>
<path d="M36.0012 41.7002V43.4002H34.2012V41.7002H36.0012ZM34.3012 44.2002H36.0012V51.0002H34.2012V44.2002H34.3012Z" fill="#111820"/>
<path d="M43.9012 41.8003V51.0003H42.1012V50.1003C41.7012 50.8003 41.0012 51.1003 40.1012 51.1003C39.5012 51.1003 38.9012 50.9003 38.5012 50.6003C38.1012 50.3003 37.7012 49.8003 37.5012 49.3003C37.3012 48.7003 37.2012 48.1003 37.2012 47.5003C37.2012 46.9003 37.3012 46.4003 37.4012 46.0003C37.6012 45.6003 37.8012 45.2003 38.0012 44.9003C38.3012 44.6003 38.6012 44.4003 38.9012 44.2003C39.2012 44.1003 39.6012 44.0003 40.0012 44.0003C40.9012 44.0003 41.5012 44.4003 42.0012 45.1003V41.8003H43.9012ZM39.2012 47.6003C39.2012 48.1003 39.3012 48.6003 39.5012 49.0003C39.7012 49.4003 40.1012 49.6003 40.6012 49.6003C41.1012 49.6003 41.5012 49.4003 41.8012 49.0003C42.1012 48.6003 42.2012 48.2003 42.2012 47.6003C42.2012 46.1003 41.7012 45.4003 40.7012 45.4003C40.2012 45.4003 39.8012 45.6003 39.5012 46.0003C39.3012 46.5003 39.2012 47.0003 39.2012 47.6003Z" fill="#111820"/>
<path d="M49.6004 49H51.4004C51.2004 49.8 50.8004 50.3 50.2004 50.7C49.6004 51 49.0004 51.2 48.4004 51.2C47.9004 51.2 47.5004 51.1 47.0004 51C46.6004 50.9 46.2004 50.7 45.9004 50.4C45.6004 50.1 45.4004 49.7 45.2004 49.2C45.0004 48.7 44.9004 48.1 44.9004 47.5C44.9004 47.2 44.9004 46.9 45.0004 46.5C45.1004 46.1 45.2004 45.8 45.4004 45.4C45.6004 45 46.0004 44.7 46.4004 44.4C46.8004 44.1 47.4004 44 48.1004 44C48.5004 44 48.9004 44.1 49.2004 44.2C49.6004 44.3 49.9004 44.5 50.2004 44.8C50.5004 45.1 50.8004 45.5 51.0004 46C51.2004 46.5 51.3004 47.1 51.3004 47.9V48.2H46.6004C46.6004 48.5 46.7004 48.7 46.7004 49C46.8004 49.2 46.9004 49.4 47.2004 49.6C47.5004 49.8 47.8004 49.9 48.2004 49.9C48.5004 49.9 48.7004 49.8 48.9004 49.7C49.4004 49.4 49.6004 49.2 49.6004 49ZM46.9004 46.9H49.7004C49.7004 46.4 49.5004 46 49.2004 45.8C48.9004 45.6 48.6004 45.5 48.3004 45.5C47.5004 45.5 47.1004 45.9 46.9004 46.9Z" fill="#111820"/>
<path d="M58.9012 46.3V51H57.1012V46.9C57.1012 46.7 57.1012 46.5 57.0012 46.3C57.0012 46.1 56.8012 45.9 56.7012 45.8C56.5012 45.7 56.3012 45.6 55.9012 45.6C55.6012 45.6 55.4012 45.7 55.2012 45.8C55.0012 45.9 54.8012 46.1 54.7012 46.3C54.6012 46.5 54.5012 46.8 54.5012 47.2V51H52.7012V44.2H54.4012V45.2C54.9012 44.4 55.6012 44 56.5012 44C57.0012 44 57.4012 44.1 57.7012 44.3C58.1012 44.5 58.3012 44.7 58.5012 45.1C58.8012 45.4 58.9012 45.8 58.9012 46.3Z" fill="#111820"/>
<path d="M62.5 42.3003V44.1003H63.6V45.4003H62.5V49.1003C62.5 49.3003 62.5 49.4003 62.5 49.4003C62.5 49.5003 62.6 49.5003 62.7 49.6003C62.8 49.6003 63 49.7003 63.2 49.7003C63.3 49.7003 63.4 49.7003 63.6 49.7003V51.0003C63.2 51.0003 62.9 51.0003 62.8 51.0003H62.6C62.1 51.0003 61.7 50.9003 61.5 50.8003C61.2 50.7003 61 50.5003 61 50.3003C60.9 50.1003 60.9 49.8003 60.9 49.5003V45.4003H60V44.1003H60.9V42.3003H62.5Z" fill="#111820"/>
</svg>
