<svg width="70" height="70" viewBox="0 0 70 70" fill="none" xmlns="http://www.w3.org/2000/svg">
<mask id="mask0" mask-type="alpha" maskUnits="userSpaceOnUse" x="11" y="5" width="48" height="60">
<path d="M58.3327 52.5H23.3327C21.7219 52.5 20.416 53.8058 20.416 55.4167C20.416 57.0275 21.7219 58.3333 23.3327 58.3333H58.3327V61.25C58.3327 63.0785 57.288 64.1667 55.416 64.1667H20.416C15.3224 64.1667 11.666 60.358 11.666 55.4167V14.5833C11.666 9.64203 15.3224 5.83334 20.416 5.83334H55.416C57.288 5.83334 58.3327 6.92154 58.3327 8.75001V52.5Z" fill="white"/>
</mask>
<g mask="url(#mask0)">
<path d="M58.3327 52.5H23.3327C21.7219 52.5 20.416 53.8058 20.416 55.4167C20.416 57.0275 21.7219 58.3333 23.3327 58.3333H58.3327V61.25C58.3327 63.0785 57.288 64.1667 55.416 64.1667H20.416C15.3224 64.1667 11.666 60.358 11.666 55.4167V14.5833C11.666 9.64203 15.3224 5.83334 20.416 5.83334H55.416C57.288 5.83334 58.3327 6.92154 58.3327 8.75001V52.5Z" fill="#B5CFE1"/>
</g>
</svg>
