<svg width="70" height="70" viewBox="0 0 70 70" fill="none" xmlns="http://www.w3.org/2000/svg">
<path fill-rule="evenodd" clip-rule="evenodd" d="M11 19H59C60.6569 19 62 20.3431 62 22V25C62 26.6569 60.6569 28 59 28H11C9.34315 28 8 26.6569 8 25V22C8 20.3431 9.34315 19 11 19ZM14 34H29C30.6569 34 32 35.3431 32 37V58C32 59.6569 30.6569 61 29 61H14C12.3431 61 11 59.6569 11 58V37C11 35.3431 12.3431 34 14 34ZM41 34H56C57.6569 34 59 35.3431 59 37V58C59 59.6569 57.6569 61 56 61H41C39.3431 61 38 59.6569 38 58V37C38 35.3431 39.3431 34 41 34Z" fill="#B5CFE1"/>
<path opacity="0.6" d="M42.3357 7.51993C43.7143 6.57214 45.5768 6.95631 46.4958 8.378C47.4149 9.79968 47.0424 11.7205 45.6638 12.6683L35 20L24.3362 12.6683C22.9576 11.7205 22.5851 9.79968 23.5042 8.378C24.4232 6.95631 26.2857 6.57214 27.6643 7.51993L35 12.5634L42.3357 7.51993Z" fill="#B5CFE1"/>
</svg>
