<svg width="70" height="71" viewBox="0 0 70 71" fill="none" xmlns="http://www.w3.org/2000/svg">
<g filter="url(#filter0_d)">
<path d="M8.27456 41.9171C6.24181 39.8722 6.24181 36.5696 8.27456 34.5248L31.8706 11.3265C32.8511 10.3625 34.1711 9.82233 35.5461 9.82233H54.3716C57.2671 9.82233 59.6144 12.1696 59.6144 15.0651V33.8368C59.6144 35.2437 59.049 36.5915 58.0452 37.5773L34.4884 60.7124C33.505 61.6969 32.1706 62.25 30.7792 62.25C29.3877 62.25 28.0533 61.6969 27.0699 60.7124L8.27456 41.9171ZM47.3813 27.2982C50.2768 27.2982 52.624 24.951 52.624 22.0555C52.624 19.16 50.2768 16.8127 47.3813 16.8127C44.4858 16.8127 42.1385 19.16 42.1385 22.0555C42.1385 24.951 44.4858 27.2982 47.3813 27.2982Z" fill="#B5CFE1"/>
</g>
<defs>
<filter id="filter0_d" x="-4" y="0" width="78" height="78" filterUnits="userSpaceOnUse" color-interpolation-filters="sRGB">
<feFlood flood-opacity="0" result="BackgroundImageFix"/>

<feColorMatrix type="matrix" values="0 0 0 0 0 0 0 0 0 0 0 0 0 0 0 0 0 0 0.25 0"/>

<feBlend mode="normal" in="SourceGraphic" in2="effect1_dropShadow" result="shape"/>
</filter>
</defs>
</svg>
