<svg width="70" height="70" viewBox="0 0 70 70" fill="none" xmlns="http://www.w3.org/2000/svg">
<path fill-rule="evenodd" clip-rule="evenodd" d="M42.2521 52.5L37.3267 61.415C36.5477 62.8249 34.7732 63.3364 33.3633 62.5574C32.9523 62.3304 32.6022 62.0075 32.3428 61.6162L26.2989 52.5H14.584C9.75149 52.5 5.83398 48.5825 5.83398 43.75V17.5C5.83398 12.6675 9.75149 8.75 14.584 8.75H55.4173C60.2498 8.75 64.1673 12.6675 64.1673 17.5V43.75C64.1673 48.5825 60.2498 52.5 55.4173 52.5H42.2521Z" fill="#B5CFE1"/>
<path opacity="0.5" fill-rule="evenodd" clip-rule="evenodd" d="M17.5007 20.4167H43.7507C45.3615 20.4167 46.6673 21.7225 46.6673 23.3334C46.6673 24.9442 45.3615 26.25 43.7507 26.25H17.5007C15.8898 26.25 14.584 24.9442 14.584 23.3334C14.584 21.7225 15.8898 20.4167 17.5007 20.4167ZM17.5007 32.0834H32.084C33.6948 32.0834 35.0007 33.3892 35.0007 35C35.0007 36.6109 33.6948 37.9167 32.084 37.9167H17.5007C15.8898 37.9167 14.584 36.6109 14.584 35C14.584 33.3892 15.8898 32.0834 17.5007 32.0834Z" fill="white"/>
</svg>
