<svg width="70" height="70" viewBox="0 0 70 70" fill="none" xmlns="http://www.w3.org/2000/svg">
<path fill-rule="evenodd" clip-rule="evenodd" d="M10.209 61.25H59.7923C62.2086 61.25 64.1673 59.2912 64.1673 56.875V24.7916C64.1673 22.3754 62.2086 20.4166 59.7923 20.4166H29.1673L21.6987 12.948C20.8783 12.1276 19.7655 11.6666 18.6051 11.6666H10.209C7.79274 11.6666 5.83398 13.6254 5.83398 16.0416V56.875C5.83398 59.2912 7.79274 61.25 10.209 61.25Z" fill="#B5CFE1"/>
<path opacity="0.5" fill-rule="evenodd" clip-rule="evenodd" d="M11.666 55.4167L29.166 32.0834L46.666 55.4167H11.666Z" fill="#F3F7F9"/>
<path fill-rule="evenodd" clip-rule="evenodd" d="M32.084 55.4167L43.7507 40.8334L55.4173 55.4167H32.084Z" fill="#EEF4F8"/>
<path opacity="0.5" fill-rule="evenodd" clip-rule="evenodd" d="M52.5 35C54.9162 35 56.875 33.0412 56.875 30.625C56.875 28.2088 54.9162 26.25 52.5 26.25C50.0838 26.25 48.125 28.2088 48.125 30.625C48.125 33.0412 50.0838 35 52.5 35Z" fill="#F3F7F9"/>
</svg>
