<svg width="61" height="61" viewBox="0 0 61 61" fill="none" xmlns="http://www.w3.org/2000/svg">
<path opacity="0.6" d="M22.6319 5.02934C26.7912 5.02934 30.1759 8.41408 30.1759 12.5733H35.2053C35.2053 5.6404 29.5649 0 22.6319 0C15.699 0 10.0586 5.6404 10.0586 12.5733H15.0879C15.0879 8.41408 18.4727 5.02934 22.6319 5.02934Z" fill="#B5CFE1"/>
<path d="M43.0147 18.8029C42.8652 16.7097 41.1235 15.0879 39.0249 15.0879H6.23914C4.14059 15.0879 2.39883 16.7097 2.24931 18.8029L0.306071 46.0083C0.14068 48.3237 1.97454 50.2933 4.29591 50.2933H35.2054C35.2054 44.1021 38.9371 38.7861 44.2758 36.4576L43.0147 18.8029Z" fill="#B5CFE1"/>
<path opacity="0.6" d="M52.8077 47.7785V40.2345H47.7784V47.7785H40.2344V52.8078H47.7784V60.3518H52.8077V52.8078H60.3517V47.7785H52.8077Z" fill="#B5CFE1"/>
</svg>
