<svg width="70" height="70" viewBox="0 0 70 70" fill="none" xmlns="http://www.w3.org/2000/svg">
<path opacity="0.3" d="M43.75 16.0417C43.75 13.6254 41.7912 11.6667 39.375 11.6667C36.9588 11.6667 35 13.6254 35 16.0417V45.2084C35 47.6246 36.9588 49.5834 39.375 49.5834C41.7912 49.5834 43.75 47.6246 43.75 45.2084V16.0417Z" fill="#B5CFE1"/>
<path opacity="0.3" d="M29.166 30.625C29.166 28.2088 27.2073 26.25 24.791 26.25C22.3748 26.25 20.416 28.2088 20.416 30.625V45.2083C20.416 47.6246 22.3748 49.5833 24.791 49.5833C27.2073 49.5833 29.166 47.6246 29.166 45.2083V30.625Z" fill="#B5CFE1"/>
<path d="M14.5833 55.4167H58.3333C59.9442 55.4167 61.25 56.7225 61.25 58.3333C61.25 59.9442 59.9442 61.25 58.3333 61.25H11.6667C10.0558 61.25 8.75 59.9442 8.75 58.3333V11.6667C8.75 10.0558 10.0558 8.75 11.6667 8.75C13.2775 8.75 14.5833 10.0558 14.5833 11.6667V55.4167Z" fill="#B5CFE1"/>
<path opacity="0.3" d="M58.334 36.4583C58.334 34.0421 56.3752 32.0833 53.959 32.0833C51.5427 32.0833 49.584 34.0421 49.584 36.4583V45.2083C49.584 47.6246 51.5427 49.5833 53.959 49.5833C56.3752 49.5833 58.334 47.6246 58.334 45.2083V36.4583Z" fill="#B5CFE1"/>
</svg>
