<svg width="68" height="70" viewBox="0 0 68 70" fill="none" xmlns="http://www.w3.org/2000/svg">
<path fill-rule="evenodd" clip-rule="evenodd" d="M23.0325 8.75V10.2083C23.0325 12.6246 24.9281 14.5833 27.2664 14.5833H41.3793C43.7176 14.5833 45.6131 12.6246 45.6131 10.2083V8.75H51.2583C54.376 8.75 56.9035 11.3617 56.9035 14.5833V61.25C56.9035 64.4717 54.376 67.0833 51.2583 67.0833H17.3873C14.2696 67.0833 11.7422 64.4717 11.7422 61.25V14.5833C11.7422 11.3617 14.2696 8.75 17.3873 8.75H23.0325Z" fill="#B5CFE1"/>
<path opacity="0.6" fill-rule="evenodd" clip-rule="evenodd" d="M31.4987 5.83305C31.4987 4.22222 32.7624 2.91638 34.3213 2.91638C35.8801 2.91638 37.1438 4.22222 37.1438 5.83305H41.3777C42.1571 5.83305 42.789 6.48597 42.789 7.29138V10.208C42.789 11.0135 42.1571 11.6664 41.3777 11.6664H27.2648C26.4854 11.6664 25.8535 11.0135 25.8535 10.208V7.29138C25.8535 6.48597 26.4854 5.83305 27.2648 5.83305H31.4987Z" fill="#B5CFE1"/>
<path opacity="0.5" d="M31.4993 29.1664H23.0316C21.4727 29.1664 20.209 30.4722 20.209 32.0831C20.209 33.6939 21.4727 34.9997 23.0316 34.9997H31.4993C33.0582 34.9997 34.3219 33.6939 34.3219 32.0831C34.3219 30.4722 33.0582 29.1664 31.4993 29.1664Z" fill="white"/>
<path opacity="0.5" d="M42.7896 40.8336H23.0316C21.4727 40.8336 20.209 42.1395 20.209 43.7503C20.209 45.3611 21.4727 46.667 23.0316 46.667H42.7896C44.3485 46.667 45.6122 45.3611 45.6122 43.7503C45.6122 42.1395 44.3485 40.8336 42.7896 40.8336Z" fill="white"/>
</svg>
