<svg width="53" height="56" viewBox="0 0 53 56" fill="none" xmlns="http://www.w3.org/2000/svg">
<path d="M18.5 36C23.7369 36 28 31.7393 28 26.5C28 21.2607 23.7369 17 18.5 17C13.2631 17 9 21.2607 9 26.5C9 31.7393 13.2631 36 18.5 36Z" fill="#B5CFE1"/>
<path d="M18.5 40C9.10384 40 1.62473 44.4229 0.232816 53.0104C-0.0322775 54.6459 1.34315 56 3 56H34C35.6569 56 37.0323 54.6459 36.7672 53.0104C35.3753 44.4229 27.8962 40 18.5 40Z" fill="#B5CFE1"/>
<path opacity="0.6" d="M41.0401 0C34.4441 0 29.0801 5.36805 29.0801 11.96C29.0801 18.5559 34.4441 23.92 41.0401 23.92C47.634 23.92 53.0001 18.5559 53.0001 11.96C53.0001 5.36805 47.634 0 41.0401 0ZM43.0334 19.9353H39.0467V11.962H43.0334V19.9353ZM43.0334 7.97533C43.0334 9.07764 42.1424 9.96866 41.0401 9.96866C39.9378 9.96866 39.0467 9.07764 39.0467 7.97533C39.0467 6.87301 39.9378 5.98199 41.0401 5.98199C42.1424 5.98199 43.0334 6.87301 43.0334 7.97533Z" fill="#B5CFE1"/>
</svg>
