<svg width="70" height="70" viewBox="0 0 70 70" fill="none" xmlns="http://www.w3.org/2000/svg">
<path fill-rule="evenodd" clip-rule="evenodd" d="M23.3327 10.2083V8.75H17.4993C14.2777 8.75 11.666 11.3617 11.666 14.5833V61.25C11.666 64.4717 14.2777 67.0833 17.4993 67.0833H52.4993C55.721 67.0833 58.3327 64.4717 58.3327 61.25V14.5833C58.3327 11.3617 55.721 8.75 52.4993 8.75H46.666V10.2083C46.666 12.6246 44.7073 14.5833 42.291 14.5833H27.7077C25.2914 14.5833 23.3327 12.6246 23.3327 10.2083ZM29.7613 45.0989C30.3204 45.6579 31.0191 45.9375 31.7179 45.9375C32.4167 45.9375 33.1155 45.6579 33.6745 45.0989L44.8551 33.9184C45.9731 32.8003 45.9731 31.1232 44.8551 30.0052C43.737 28.8871 42.0599 28.8871 40.9419 30.0052L31.7179 39.2291L28.0843 35.5954C27.106 34.4774 25.2891 34.4774 24.1711 35.5954C23.053 36.7135 23.053 38.3906 24.1711 39.5086L29.7613 45.0989Z" fill="#B5CFE1"/>
<path opacity="0.5" fill-rule="evenodd" clip-rule="evenodd" d="M32.0833 5.83329C32.0833 4.22246 33.3892 2.91663 35 2.91663C36.6108 2.91663 37.9167 4.22246 37.9167 5.83329H42.2917C43.0971 5.83329 43.75 6.48621 43.75 7.29163V10.2083C43.75 11.0137 43.0971 11.6666 42.2917 11.6666H27.7083C26.9029 11.6666 26.25 11.0137 26.25 10.2083V7.29163C26.25 6.48621 26.9029 5.83329 27.7083 5.83329H32.0833Z" fill="#B5CFE1"/>
</svg>
