<svg width="62" height="62" viewBox="0 0 62 62" fill="none" xmlns="http://www.w3.org/2000/svg">
<path fill-rule="evenodd" clip-rule="evenodd" d="M6.29032 45.4758L2.06239 41.2479C0.923365 40.1089 0.923366 38.2621 2.06239 37.1231L12.3744 26.8111L16.4992 30.9359C17.6382 32.0749 19.4849 32.0749 20.6239 30.9359C21.763 29.7969 21.763 27.9501 20.6239 26.8111L16.4992 22.6863L37.1231 2.06237C38.2621 0.923344 40.1089 0.923344 41.2479 2.06237L45.4758 6.2903C43.6001 9.12146 43.9095 12.9735 46.4039 15.4679C48.8983 17.9624 52.7504 18.2717 55.5815 16.396L59.8094 20.6239C60.9485 21.763 60.9485 23.6097 59.8094 24.7487L39.1855 45.3727L35.0607 41.2479C33.9217 40.1088 32.0749 40.1088 30.9359 41.2479C29.7969 42.3869 29.7969 44.2336 30.9359 45.3727L35.0607 49.4975L24.7487 59.8094C23.6097 60.9485 21.763 60.9485 20.6239 59.8094L16.396 55.5815C18.2717 52.7503 17.9624 48.8983 15.468 46.4039C12.9735 43.9094 9.12148 43.6001 6.29032 45.4758ZM22.6863 32.9983C21.5473 34.1373 21.5473 35.9841 22.6863 37.1231L24.7487 39.1855C25.8878 40.3245 27.7345 40.3245 28.8735 39.1855C30.0126 38.0465 30.0126 36.1997 28.8735 35.0607L26.8111 32.9983C25.6721 31.8593 23.8254 31.8593 22.6863 32.9983Z" fill="#B5CFE1"/>
</svg>
