<svg width="70" height="70" viewBox="0 0 70 70" fill="none" xmlns="http://www.w3.org/2000/svg">
<path opacity="0.3" fill-rule="evenodd" clip-rule="evenodd" d="M16.7487 9.83307H51.7487C53.3595 9.83307 54.6654 11.1389 54.6654 12.7497V38.9997C54.6654 40.6106 53.3595 41.9164 51.7487 41.9164H16.7487C15.1379 41.9164 13.832 40.6106 13.832 38.9997V12.7497C13.832 11.1389 15.1379 9.83307 16.7487 9.83307ZM21.1237 18.5831C20.3183 18.5831 19.6654 19.236 19.6654 20.0414C19.6654 20.8468 20.3183 21.4997 21.1237 21.4997H38.6237C39.4291 21.4997 40.082 20.8468 40.082 20.0414C40.082 19.236 39.4291 18.5831 38.6237 18.5831H21.1237ZM21.1237 24.4164C20.3183 24.4164 19.6654 25.0693 19.6654 25.8747C19.6654 26.6802 20.3183 27.3331 21.1237 27.3331H29.8737C30.6791 27.3331 31.332 26.6802 31.332 25.8747C31.332 25.0693 30.6791 24.4164 29.8737 24.4164H21.1237Z" fill="#B5CFE1"/>
<path fill-rule="evenodd" clip-rule="evenodd" d="M14.0156 18.6732V25.8749L34.25 40.4581L54.6667 25.3277V18.6732C56.1286 19.899 60.5 22.166 60.5 24.3519V53.5831C60.5 56.8048 57.8883 59.4164 54.6667 59.4164H13.8333C10.6117 59.4164 8 56.8048 8 53.5831V24.3519C8 22.3368 13.3938 18.2241 14.0156 18.6732Z" fill="#B5CFE1"/>
</svg>
