<svg width="70" height="70" viewBox="0 0 70 70" fill="none" xmlns="http://www.w3.org/2000/svg">
<path fill-rule="evenodd" clip-rule="evenodd" d="M44.8763 45.5921V35C44.8763 30.1675 40.9588 26.25 36.1263 26.25H16.1816V16.1184C16.1816 12.049 19.4806 8.75 23.5501 8.75H57.936C62.0055 8.75 65.3044 12.049 65.3044 16.1184V38.2237L65.3531 51.8781C65.356 52.6836 64.7054 53.3388 63.9 53.3417C63.5114 53.343 63.1383 53.1893 62.8636 52.9145L55.5411 45.5921H44.8763Z" fill="#B5CFE1"/>
<path opacity="0.6" fill-rule="evenodd" clip-rule="evenodd" d="M4 52.4988V37.9155C4 34.6938 6.61167 32.0822 9.83333 32.0822H33.1667C36.3883 32.0822 39 34.6938 39 37.9155V52.4988C39 55.7205 36.3883 58.3322 33.1667 58.3322H10.1709L6.54298 61.8045C5.96113 62.3614 5.03798 62.3412 4.48108 61.7594C4.22129 61.4879 4.07628 61.1267 4.07628 60.751V53.4446C4.02609 53.1368 4 52.8208 4 52.4988ZM17.1686 40.8322C16.3632 40.8322 15.7103 41.4851 15.7103 42.2905C15.7103 43.0959 16.3632 43.7488 17.1686 43.7488H31.7519C32.5573 43.7488 33.2102 43.0959 33.2102 42.2905C33.2102 41.4851 32.5573 40.8322 31.7519 40.8322H17.1686ZM25.9186 46.6655C25.1132 46.6655 24.4603 47.3184 24.4603 48.1238C24.4603 48.9292 25.1132 49.5822 25.9186 49.5822H31.7519C32.5573 49.5822 33.2102 48.9292 33.2102 48.1238C33.2102 47.3184 32.5573 46.6655 31.7519 46.6655H25.9186Z" fill="#B5CFE1"/>
</svg>
