<svg width="70" height="70" viewBox="0 0 70 70" fill="none" xmlns="http://www.w3.org/2000/svg">
<path opacity="0.3" fill-rule="evenodd" clip-rule="evenodd" d="M20.4173 32.0834H43.7507C46.9723 32.0834 49.584 29.4717 49.584 26.25V23.3334H55.4173V26.25C55.4173 32.6934 50.194 37.9167 43.7507 37.9167H20.4173V43.75C20.4173 45.3609 19.1115 46.6667 17.5007 46.6667C15.8898 46.6667 14.584 45.3609 14.584 43.75V26.25C14.584 24.6392 15.8898 23.3334 17.5007 23.3334C19.1115 23.3334 20.4173 24.6392 20.4173 26.25V32.0834Z" fill="#B5CFE1"/>
<path d="M17.5007 61.25C20.7223 61.25 23.334 58.6383 23.334 55.4167C23.334 52.195 20.7223 49.5833 17.5007 49.5833C14.279 49.5833 11.6673 52.195 11.6673 55.4167C11.6673 58.6383 14.279 61.25 17.5007 61.25ZM17.5007 67.0833C11.0573 67.0833 5.83398 61.86 5.83398 55.4167C5.83398 48.9733 11.0573 43.75 17.5007 43.75C23.944 43.75 29.1673 48.9733 29.1673 55.4167C29.1673 61.86 23.944 67.0833 17.5007 67.0833Z" fill="#B5CFE1"/>
<path d="M52.5007 20.4166C55.7223 20.4166 58.334 17.805 58.334 14.5833C58.334 11.3616 55.7223 8.74996 52.5007 8.74996C49.279 8.74996 46.6673 11.3616 46.6673 14.5833C46.6673 17.805 49.279 20.4166 52.5007 20.4166ZM52.5007 26.25C46.0573 26.25 40.834 21.0266 40.834 14.5833C40.834 8.13997 46.0573 2.91663 52.5007 2.91663C58.944 2.91663 64.1673 8.13997 64.1673 14.5833C64.1673 21.0266 58.944 26.25 52.5007 26.25Z" fill="#B5CFE1"/>
<path d="M17.5007 20.4166C20.7223 20.4166 23.334 17.805 23.334 14.5833C23.334 11.3616 20.7223 8.74996 17.5007 8.74996C14.279 8.74996 11.6673 11.3616 11.6673 14.5833C11.6673 17.805 14.279 20.4166 17.5007 20.4166ZM17.5007 26.25C11.0573 26.25 5.83398 21.0266 5.83398 14.5833C5.83398 8.13997 11.0573 2.91663 17.5007 2.91663C23.944 2.91663 29.1673 8.13997 29.1673 14.5833C29.1673 21.0266 23.944 26.25 17.5007 26.25Z" fill="#B5CFE1"/>
</svg>
