<svg width="70" height="70" viewBox="0 0 70 70" fill="none" xmlns="http://www.w3.org/2000/svg">
<path opacity="0.3" d="M46.666 16.0416C46.666 13.6254 44.7073 11.6666 42.291 11.6666C39.8748 11.6666 37.916 13.6254 37.916 16.0416V53.9583C37.916 56.3745 39.8748 58.3333 42.291 58.3333C44.7073 58.3333 46.666 56.3745 46.666 53.9583V16.0416Z" fill="#B5CFE1"/>
<path d="M32.084 30.625C32.084 28.2088 30.1252 26.25 27.709 26.25C25.2927 26.25 23.334 28.2088 23.334 30.625V53.9583C23.334 56.3746 25.2927 58.3333 27.709 58.3333C30.1252 58.3333 32.084 56.3746 32.084 53.9583V30.625Z" fill="#B5CFE1"/>
<path d="M61.25 36.4584C61.25 34.0421 59.2912 32.0834 56.875 32.0834C54.4588 32.0834 52.5 34.0421 52.5 36.4584V53.9584C52.5 56.3746 54.4588 58.3334 56.875 58.3334C59.2912 58.3334 61.25 56.3746 61.25 53.9584V36.4584Z" fill="#B5CFE1"/>
<path d="M17.5 42.2916C17.5 39.8754 15.5412 37.9166 13.125 37.9166C10.7088 37.9166 8.75 39.8754 8.75 42.2916V53.9583C8.75 56.3745 10.7088 58.3333 13.125 58.3333C15.5412 58.3333 17.5 56.3745 17.5 53.9583V42.2916Z" fill="#B5CFE1"/>
</svg>
