<svg width="70" height="70" viewBox="0 0 70 70" fill="none" xmlns="http://www.w3.org/2000/svg">
<path fill-rule="evenodd" clip-rule="evenodd" d="M34.9994 58.3969L24.7137 63.375L20.0342 52.95L8.95501 50.1519L12.0713 39.158L5.38281 29.8929L14.8368 23.4742L15.6686 12.0775L27.0366 13.2374L34.9994 5.04163L42.9623 13.2374L54.3303 12.0775L55.162 23.4742L64.616 29.8929L57.9275 39.158L61.0438 50.1519L49.9647 52.95L45.2852 63.375L34.9994 58.3969Z" fill="#B5CFE1"/>
<path opacity="0.5" fill-rule="evenodd" clip-rule="evenodd" d="M43.635 26.6371C42.8408 25.8447 41.5488 25.8657 40.7807 26.6835L26.7975 41.5713C26.0616 42.3549 26.0815 43.5814 26.8425 44.3407C27.6367 45.1331 28.9287 45.1121 29.6967 44.2944L43.6799 29.4065C44.4159 28.6229 44.396 27.3964 43.635 26.6371Z" fill="white"/>
<path opacity="0.5" fill-rule="evenodd" clip-rule="evenodd" d="M31.6573 26.7616C31.6573 29.532 29.4149 31.7738 26.6451 31.7738C23.8803 31.7738 21.6328 29.532 21.6328 26.7616C21.6328 23.9911 23.8803 21.7493 26.6451 21.7493C29.4149 21.7493 31.6573 23.9911 31.6573 26.7616Z" fill="white"/>
<path opacity="0.5" fill-rule="evenodd" clip-rule="evenodd" d="M43.3541 48.4813C40.5893 48.4813 38.3418 46.2395 38.3418 43.469C38.3418 40.6935 40.5893 38.4568 43.3541 38.4568C46.1239 38.4568 48.3663 40.6935 48.3663 43.469C48.3663 46.2395 46.1239 48.4813 43.3541 48.4813Z" fill="white"/>
</svg>
