<svg width="70" height="70" viewBox="0 0 70 70" fill="none" xmlns="http://www.w3.org/2000/svg">
<path fill-rule="evenodd" clip-rule="evenodd" d="M20.4167 8.75H49.5833C56.0267 8.75 61.25 13.9733 61.25 20.4167C61.25 26.86 56.0267 32.0833 49.5833 32.0833H20.4167C13.9733 32.0833 8.75 26.86 8.75 20.4167C8.75 13.9733 13.9733 8.75 20.4167 8.75ZM20.4167 26.25C23.6383 26.25 26.25 23.6383 26.25 20.4167C26.25 17.195 23.6383 14.5833 20.4167 14.5833C17.195 14.5833 14.5833 17.195 14.5833 20.4167C14.5833 23.6383 17.195 26.25 20.4167 26.25Z" fill="#B5CFE1"/>
<path opacity="0.3" fill-rule="evenodd" clip-rule="evenodd" d="M20.4167 37.9166H49.5833C56.0267 37.9166 61.25 43.14 61.25 49.5833C61.25 56.0266 56.0267 61.25 49.5833 61.25H20.4167C13.9733 61.25 8.75 56.0266 8.75 49.5833C8.75 43.14 13.9733 37.9166 20.4167 37.9166ZM49.5833 55.4166C52.805 55.4166 55.4167 52.805 55.4167 49.5833C55.4167 46.3616 52.805 43.75 49.5833 43.75C46.3617 43.75 43.75 46.3616 43.75 49.5833C43.75 52.805 46.3617 55.4166 49.5833 55.4166Z" fill="#B5CFE1"/>
</svg>
