<svg width="54" height="52" viewBox="0 0 54 52" fill="none" xmlns="http://www.w3.org/2000/svg">
<path fill-rule="evenodd" clip-rule="evenodd" d="M26.9998 44.6487L13.8112 51.6261C12.2328 52.4612 10.2804 51.8505 9.45054 50.262C9.12008 49.6295 9.00605 48.905 9.1261 48.2007L11.6449 33.4224L0.975128 22.9563C-0.301896 21.7037 -0.328027 19.6465 0.916764 18.3614C1.41245 17.8497 2.06194 17.5166 2.76469 17.4139L17.5099 15.2578L24.1042 1.81204C24.8935 0.202773 26.8297 -0.457953 28.4288 0.336269C29.0656 0.652532 29.5811 1.17122 29.8954 1.81204L36.4896 15.2578L51.2349 17.4139C52.9997 17.6719 54.2225 19.3208 53.966 21.0968C53.8639 21.8039 53.533 22.4575 53.0245 22.9563L42.3547 33.4224L44.8735 48.2007C45.1749 49.9694 43.9945 51.6492 42.2368 51.9526C41.5369 52.0734 40.8169 51.9586 40.1883 51.6261L26.9998 44.6487Z" fill="#B5CFE1"/>
</svg>
