<svg width="70" height="70" viewBox="0 0 70 70" fill="none" xmlns="http://www.w3.org/2000/svg">
<path fill-rule="evenodd" clip-rule="evenodd" d="M8.75065 11.6666H58.334C59.9448 11.6666 61.2506 12.9725 61.2506 14.5833V20.4166C61.2506 22.0275 59.9448 23.3333 58.334 23.3333H8.75065C7.13982 23.3333 5.83398 22.0275 5.83398 20.4166V14.5833C5.83398 12.9725 7.13982 11.6666 8.75065 11.6666ZM29.1673 29.1666H58.334C59.9448 29.1666 61.2506 30.4725 61.2506 32.0833V55.4166C61.2506 57.0275 59.9448 58.3333 58.334 58.3333H29.1673C27.5565 58.3333 26.2506 57.0275 26.2506 55.4166V32.0833C26.2506 30.4725 27.5565 29.1666 29.1673 29.1666Z" fill="#B5CFE1"/>
<path opacity="0.3" d="M17.5006 29.1666H8.75065C7.13982 29.1666 5.83398 30.4725 5.83398 32.0833V55.4166C5.83398 57.0275 7.13982 58.3333 8.75065 58.3333H17.5006C19.1115 58.3333 20.4173 57.0275 20.4173 55.4166V32.0833C20.4173 30.4725 19.1115 29.1666 17.5006 29.1666Z" fill="#B5CFE1"/>
</svg>
